<?xml version="1.0" encoding="UTF-8"?>
<svg width="90px" height="76px" viewBox="0 0 90 76" version="1.1" xmlns="http://www.w3.org/2000/svg" xmlns:xlink="http://www.w3.org/1999/xlink">
    <!-- Generator: Sketch 49 (51002) - http://www.bohemiancoding.com/sketch -->
    <title>noun_660441_cc</title>
    <desc>Created with Sketch.</desc>
    <defs></defs>
    <g id="Welcome" stroke="none" stroke-width="1" fill="none" fill-rule="evenodd">
        <g id="Instructions" transform="translate(-165.000000, -354.000000)" fill-rule="nonzero">
            <g id="noun_660441_cc" transform="translate(165.000000, 354.000000)">
                <path d="M35.8873,70.2723 C37.8258,70.2725 39.6891,70.6405 41.4794,71.4073 C42.1574,72.681 43.4544,73.5772 44.9995,73.5772 C46.5446,73.5772 47.8421,72.6808 48.5198,71.4071 C50.3104,70.64 52.1734,70.2721 54.1126,70.2723 C62.3265,70.2723 71.715,75.8379 80.918,75.8379 C83.9825,75.8379 87.027,75.2205 89.9999,73.5752 L89.9999,3.465 C87.026,5.1108 83.9835,5.7276 80.918,5.7276 C71.7149,5.7276 62.3262,0.1621 54.1126,0.1621 C50.8639,0.1621 47.7967,1.0339 44.9999,3.465 C42.2024,1.0332 39.1369,0.1621 35.887,0.1621 C27.6734,0.1621 18.2846,5.7276 9.0818,5.7276 C6.0173,5.7276 2.9728,5.1102 -9.99999993e-05,3.465 L-9.99999993e-05,73.5751 C2.9738,75.2209 6.0163,75.8378 9.0818,75.8378 C18.285,75.8378 27.6737,70.2711 35.8873,70.2723 Z M49.0342,10.6502 L50.2941,9.5551 C51.3897,8.6025 52.4605,8.2317 54.1126,8.2317 C56.889,8.2317 60.53,9.3522 64.3849,10.5386 C69.3474,12.0659 74.972,13.7971 80.918,13.7971 C81.2571,13.7971 81.5948,13.7915 81.9304,13.7799 L81.9304,67.7313 C81.6026,67.756 81.2655,67.7683 80.918,67.7683 C77.3994,67.7683 73.3836,66.5323 69.1324,65.2239 C64.3067,63.7387 59.3164,62.2027 54.1129,62.2027 C52.3472,62.2025 50.6569,62.3985 49.0342,62.7598 L49.0342,10.6502 Z M8.0695,13.78 C8.4051,13.7916 8.7428,13.7972 9.0819,13.7972 C15.0279,13.7972 20.6523,12.0662 25.6147,10.5387 C29.4697,9.3522 33.1107,8.2318 35.887,8.2318 C37.5394,8.2318 38.6101,8.6029 39.7058,9.5555 L40.9647,10.6499 L40.9647,62.76 C39.3428,62.3992 37.6532,62.2032 35.8883,62.2029 C35.8871,62.2029 35.8863,62.2029 35.8848,62.2029 C30.6816,62.2029 25.6913,63.7388 20.8658,65.2241 C16.6151,66.5324 12.6001,67.7685 9.0819,67.7685 C8.7344,67.7685 8.3973,67.7562 8.0695,67.7315 L8.0695,13.78 Z" id="Shape" fill="#0271C0"></path>
                <circle id="Oval" fill="#0071BC" cx="65.4824" cy="24.9214" r="4.8437"></circle>
                <polygon id="Shape" fill="#0071BC" points="75.1697 49.1399 70.326 49.1399 70.326 34.6088 65.4824 34.6088 60.6387 34.6088 55.795 34.6088 55.795 39.4525 60.6387 39.4525 60.6387 49.1399 55.795 49.1399 55.795 53.9836 75.1697 53.9836"></polygon>
            </g>
        </g>
    </g>
</svg>