<?xml version="1.0" encoding="UTF-8"?>
<svg width="39px" height="46px" viewBox="0 0 39 46" version="1.1" xmlns="http://www.w3.org/2000/svg" xmlns:xlink="http://www.w3.org/1999/xlink">
    <!-- Generator: Sketch 49 (51002) - http://www.bohemiancoding.com/sketch -->
    <title>noun_1014568_cc</title>
    <desc>Created with Sketch.</desc>
    <defs></defs>
    <g id="Welcome" stroke="none" stroke-width="1" fill="none" fill-rule="evenodd">
        <g id="Questions-Cardiologia" transform="translate(-106.000000, -193.000000)" fill="#F57B8A" fill-rule="nonzero">
            <g id="noun_1014568_cc" transform="translate(106.000000, 193.000000)">
                <g id="Group">
                    <path d="M12.8951613,0.535943514 C12.8951613,1.77918676 12.8756613,4.88729486 12.266129,4.88729486 C11.6174081,4.88729486 10.3790323,3.20966243 10.3790323,2.40080838 L7.86290323,2.40080838 L7.86290323,5.50891649 L8.49193548,6.13053811 C9.75,7.99540297 10.3790323,9.86026784 10.3790323,13.5899976 C10.0157158,13.8195438 9.379695,14.0541065 9.08165323,14.1533422 L4.24596774,19.0097611 L4.71774194,19.8062138 C3.45967742,27.8873135 5.34677419,33.4819081 10.3790323,37.8332595 C17.2983871,44.0494757 24.8467742,45.9143405 32.3951613,45.9143405 C36.7983871,45.9143405 38.6854839,34.7251514 38.6854839,28.5089351 C38.6854839,23.5359622 36.7983871,15.4548624 29.25,14.2116192 C27.9919355,14.2116192 27.9919355,16.2836705 27.3629032,17.3197273 L24.8467742,17.3197273 C24.2177419,12.3467543 24.8467742,10.4818895 29.8790323,11.1035111 L29.8790323,6.75215973 C26.1048387,6.75215973 22.3306452,6.75215973 19.8145161,9.86026784 C18.5564516,11.7251327 21.7016129,13.5899976 19.8145161,16.0764841 L16.6693548,14.2116192 C14.7822581,9.23864622 17.2983871,6.75215973 22.3306452,3.02243 L22.3306452,0.535943514 L18.5564516,0.535943514 C18.582871,2.09633811 17.2590726,2.40080838 16.6693548,2.40080838 C16.0010081,2.40080838 15.4112903,1.98388676 15.4112903,0.535943514 L12.8951613,0.535943514 Z M4.08870968,7.99540297 L0.314516129,12.3467543 L2.92893145,16.7952341 L7.48941532,12.2107746 L4.08870968,7.99540297 Z" id="Shape"></path>
                </g>
            </g>
        </g>
    </g>
</svg>