<?xml version="1.0" encoding="UTF-8"?>
<svg width="62px" height="74px" viewBox="0 0 62 74" version="1.1" xmlns="http://www.w3.org/2000/svg" xmlns:xlink="http://www.w3.org/1999/xlink">
    <!-- Generator: Sketch 49 (51002) - http://www.bohemiancoding.com/sketch -->
    <title>Group 11</title>
    <desc>Created with Sketch.</desc>
    <defs></defs>
    <g id="Welcome" stroke="none" stroke-width="1" fill="none" fill-rule="evenodd">
        <g id="Modulos-Page-UserNoPay" transform="translate(-262.000000, -296.000000)" fill="#FFFFFF" fill-rule="nonzero">
            <g id="Group-8" transform="translate(107.000000, 274.000000)">
                <g id="Group-11" transform="translate(155.000000, 21.000000)">
                    <g id="noun_1014568_cc">
                        <g id="Group" transform="translate(0.000000, 0.637820)">
                            <path d="M20.5,0.86217 C20.5,2.86217 20.469,7.86217 19.5,7.86217 C18.4687,7.86217 16.5,5.16337 16.5,3.86217 L12.5,3.86217 L12.5,8.86217 L13.5,9.86217 C15.5,12.86217 16.5,15.86217 16.5,21.86217 C15.92242,22.23144 14.91131,22.60878 14.4375,22.76842 L6.75,30.58092 L7.5,31.86217 C5.5,44.8622 8.5,53.8622 16.5,60.8622 C27.5,70.8622 39.5,73.8622 51.5,73.8622 C58.5,73.8622 61.5,55.8622 61.5,45.8622 C61.5,37.8622 58.5,24.86217 46.5,22.86217 C44.5,22.86217 44.5,26.19547 43.5,27.86217 L39.5,27.86217 C38.5,19.86217 39.5,16.86217 47.5,17.86217 L47.5,10.86217 C41.5,10.86217 35.5,10.86217 31.5,15.86217 C29.5,18.86217 34.5,21.86217 31.5,25.86217 L26.5,22.86217 C23.5,14.86217 27.5,10.86217 35.5,4.86217 L35.5,0.86217 L29.5,0.86217 C29.542,3.37237 27.4375,3.86217 26.5,3.86217 C25.4375,3.86217 24.5,3.19147 24.5,0.86217 L20.5,0.86217 Z M6.5,12.86217 L0.5,19.86217 L4.65625,27.01842 L11.90625,19.64342 L6.5,12.86217 Z" id="Shape"></path>
                        </g>
                    </g>
                </g>
            </g>
        </g>
    </g>
</svg>