<?xml version="1.0" encoding="UTF-8"?>
<svg width="88px" height="75px" viewBox="0 0 88 75" version="1.1" xmlns="http://www.w3.org/2000/svg" xmlns:xlink="http://www.w3.org/1999/xlink">
    <!-- Generator: Sketch 49 (51002) - http://www.bohemiancoding.com/sketch -->
    <title>noun_938535_cc</title>
    <desc>Created with Sketch.</desc>
    <defs></defs>
    <g id="Welcome" stroke="none" stroke-width="1" fill="none" fill-rule="evenodd">
        <g id="Modulos-Page-UserNoPay" transform="translate(-1046.000000, -298.000000)" fill="#FFFFFF" fill-rule="nonzero">
            <g id="Group-4" transform="translate(904.000000, 273.000000)">
                <g id="noun_938535_cc" transform="translate(142.000000, 25.225225)">
                    <g id="Group">
                        <path d="M75.5898795,58.5662998 C72.9594217,55.0148342 67.1280964,55.1540429 62.5626988,58.8754089 C57.9951807,62.5989672 56.4270843,68.4961541 59.0575422,72.0476197 C61.6869398,75.6012777 67.5214458,75.462069 72.0879036,71.7417991 C76.6533012,68.0171446 78.2213976,62.1199578 75.5898795,58.5662998 Z M75.1604819,63.1711478 C74.9908434,63.8277305 74.3419759,64.2135687 73.7100723,64.0414761 C73.0771084,63.8693835 72.7007229,63.1963588 72.868241,62.5441606 C72.9000482,62.4181055 72.9074699,62.3369918 72.9074699,62.2876659 C72.9000482,62.1638031 72.8894458,62.1605147 72.8427952,62.0826893 C72.7579759,61.9643071 72.5204819,61.7987913 71.9055422,61.7900222 C70.7371566,61.7691958 68.6548434,62.5726601 66.7495904,64.123686 C64.446747,65.9158608 63.149012,68.2933698 63.2168675,69.2623499 C63.218988,69.5254214 63.2741205,69.6361307 63.333494,69.7216289 C63.4310361,69.8038388 63.355759,69.8356266 63.7279036,69.864126 C63.7438072,69.864126 63.7554699,69.864126 63.7703133,69.864126 C64.4244819,69.864126 64.9535422,70.4110956 64.9535422,71.0874086 C64.9535422,71.7626256 64.4244819,72.3128835 63.7703133,72.3128835 C63.7554699,72.3128835 63.7438072,72.3128835 63.7279036,72.3128835 C63.7045783,72.3139797 63.6780723,72.3139797 63.6536867,72.3139797 C62.6485783,72.3139797 61.8268916,71.7549527 61.4621687,71.2233289 C61.0242892,70.64786 60.8451084,69.9353746 60.8472289,69.2623499 C60.9161446,66.8475725 62.6750843,64.349489 65.296,62.1912063 C67.5362892,60.4078006 69.8857831,59.3642835 71.9055422,59.3412647 C72.9350361,59.3357841 74.0101205,59.6580467 74.7098795,60.5777009 C75.0046265,60.9569624 75.2845301,61.5686037 75.2771084,62.2876659 C75.2771084,62.5781407 75.2368193,62.8751923 75.1604819,63.1711478 Z" id="Shape"></path>
                        <path d="M86.9153735,24.4163266 C83.8724819,18.9060741 75.2877108,17.9886121 67.2213976,22.0870474 C67.0061687,20.0603005 66.386988,17.9338056 65.3214458,15.8939051 C62.0887711,9.71282019 56.0962892,6.70284341 51.9316627,9.17352355 C47.7702169,11.6431076 47.0132048,18.6583484 50.2426988,24.8394333 C51.9539277,28.1146739 54.4423133,30.468068 57.0218795,31.6157175 C54.9204819,35.441216 54.4709398,39.4640182 56.2160964,42.624165 C59.4508916,48.4796989 68.9453494,49.1516274 77.4219759,44.1236727 C85.8996627,39.0979103 90.1512289,30.2729566 86.9153735,24.4163266 Z M54.6055904,22.3227156 C53.2304578,19.7687295 52.4893494,17.2059743 52.4808675,15.0718065 C52.4808675,13.4868005 52.9017831,11.9105636 54.2726747,11.0983303 C54.6183133,10.8933537 55.0996627,10.7201649 55.6562892,10.7201649 C56.1047711,10.7201649 56.5903614,10.8341626 57.0759518,11.0654463 C57.666506,11.3504405 57.9220241,12.0727911 57.6463614,12.6800479 C57.3685783,13.2894969 56.6688193,13.5503762 56.0793253,13.2686704 C55.8587952,13.1601534 55.734747,13.1469998 55.6562892,13.1469998 C55.558747,13.1491921 55.5120964,13.1656341 55.4198554,13.2160561 C55.1929639,13.3125157 54.8367229,13.8605814 54.8367229,15.0707104 C54.8303614,16.6096789 55.4389398,18.8896321 56.6645783,21.1432783 C58.026988,23.7838588 59.981012,25.6111098 61.2628434,26.2402892 C61.2342169,26.2676925 61.2077108,26.2961919 61.1790843,26.3235952 C60.597012,26.8716609 60.0573494,27.4394569 59.5526747,28.0204066 C59.5505542,28.0215027 59.549494,28.023695 59.5473735,28.0258872 C57.7311807,26.9231791 56.0400964,24.878894 54.6055904,22.3227156 Z M76.0913735,41.714376 C68.8986988,45.9805193 61.0401928,45.7689659 58.5412048,41.2441356 C56.0422169,36.7193052 59.8474217,29.5911628 67.0390361,25.3261156 C74.2327711,21.0599723 82.0902169,21.2715256 84.5892048,25.796356 C87.0881928,30.3211863 83.2840482,37.4471365 76.0913735,41.714376 Z M78.8257349,27.3616316 C76.3468916,27.3769774 73.1226988,28.5333961 69.8391325,30.5700082 C67.6666988,31.9248266 65.8377831,33.4648912 64.5103614,34.9874176 C63.2041446,36.5274822 62.3124819,37.9952022 62.2753735,39.6054192 C62.2753735,40.1271777 62.4004819,40.6697627 62.6772048,41.138907 C63.0461687,41.8502962 64.0184096,42.5211286 65.2292048,42.5211286 C65.2663133,42.5211286 65.3044819,42.5211286 65.3437108,42.5189364 C65.9968193,42.5222248 66.5301205,41.9741591 66.5333012,41.3000383 C66.5333012,40.6226291 66.0053012,40.0723711 65.3511325,40.0701789 C64.6683373,40.0230452 64.7913253,39.9386431 64.706506,39.8739714 C64.6746988,39.8136841 64.6481928,39.7501085 64.6460723,39.6054192 C64.6089639,39.1373711 65.1284819,37.9097039 66.2756627,36.6261341 C67.403759,35.32393 69.0704578,33.9088244 71.0637108,32.6647152 C74.0557108,30.7837538 77.0816386,29.792851 78.8257349,29.8103891 C79.8011566,29.8071007 80.1658795,30.0975755 80.1976867,30.201708 C80.2231325,30.2543223 80.229494,30.2641875 80.2347952,30.3442051 C80.2326747,30.4121652 80.2146506,30.5798734 80.0619759,30.8878863 C79.762988,31.4896624 79.9888193,32.2273588 80.5698313,32.5408524 C81.1519036,32.8510576 81.8675663,32.6153893 82.1697349,32.0136132 C82.451759,31.4480094 82.6044337,30.885694 82.6023133,30.3453012 C82.6065542,29.7873704 82.4337349,29.2886306 82.2238072,28.9356763 C81.4720964,27.7014323 80.1425542,27.3616316 78.8257349,27.3616316 Z" id="Shape"></path>
                        <path d="M21.3871807,1.5959673 C16.2439518,-2.0640154 8.19354217,1.1629954 3.40761446,8.80412728 C-1.37937349,16.4474514 -1.08780723,25.6078214 4.05860241,29.2699963 C9.20289157,32.929979 17.2511807,29.7040644 22.0392289,22.0618364 C26.8240964,14.4207045 26.5335904,5.25814225 21.3871807,1.5959673 Z M20.0417349,20.6061739 C16.1368675,26.7872588 9.69696386,29.4815497 5.65638554,26.6239352 C1.61368675,23.7663207 1.50024096,16.4408746 5.40404819,10.2597898 C9.30679518,4.07980101 15.7488193,1.38551007 19.7883373,4.24312459 C23.8320964,7.09964297 23.9434217,14.4261851 20.0417349,20.6061739 Z M18.8722892,7.41313655 C18.3453494,7.04045188 17.7251084,6.88151283 17.1356145,6.88370509 C14.4945542,6.98454918 11.796241,9.36753881 9.53792771,12.8159681 C7.85108434,15.4795674 6.90640964,18.20455 6.89156627,20.4592923 C6.88944578,21.7899958 7.25628916,23.1371413 8.36106024,23.9285481 C8.72048193,24.1872351 9.26226506,24.4229034 9.89416867,24.4229034 L9.90477108,24.4229034 C10.2779759,24.4229034 10.6776867,24.3461742 11.0805783,24.1894274 C11.677494,23.9592398 11.9828434,23.2653886 11.765494,22.6394976 C11.5449639,22.0103182 10.8844337,21.6924401 10.2875181,21.9226277 L10.2864578,21.9204354 C10.1030361,21.9905878 9.98746988,22.0070298 9.90583133,22.0070298 C9.77966265,22.0026453 9.73301205,21.9785304 9.64607229,21.9204354 C9.45098795,21.8009571 9.19759036,21.391004 9.19653012,20.4592923 C9.18062651,18.9455348 9.95142169,16.4945851 11.4548434,14.157633 C13.3664578,11.045716 16.0626506,9.19983071 17.1366747,9.29957866 C17.3678072,9.30177092 17.4918554,9.35000071 17.5968193,9.42015311 C17.7166265,9.54730435 17.7908434,9.50674749 17.8438554,10.0438519 C17.8650602,10.7102998 18.4004819,11.2309622 19.0355663,11.2057511 C19.6717108,11.1805401 20.1689639,10.6182247 20.1445783,9.95287297 C20.1307952,8.74055166 19.4819277,7.80007093 18.8722892,7.41313655 Z" id="Shape"></path>
                        <path d="M37.6396145,29.1351722 C33.8969639,29.1351722 30.5529639,31.8678277 28.3169157,36.1591821 C24.2858795,35.6144048 19.413012,36.633807 14.8179277,39.3576935 C6.34024096,44.384552 2.0886747,53.2095058 5.32453012,59.0661358 C8.5593253,64.9216696 18.0537831,65.5935982 26.5304096,60.5656435 C26.8771084,60.3595708 27.2057831,60.1381523 27.5376386,59.9200221 C29.7302169,65.1551456 33.435759,68.595902 37.6396145,68.595902 C44.3721446,68.595902 49.8313253,59.7621792 49.8313253,48.8655371 C49.8313253,37.9677989 44.3721446,29.1351722 37.6396145,29.1351722 Z M11.7856386,57.5808777 C12.1546024,58.292267 13.1268434,58.9630994 14.3376386,58.9630994 C14.374747,58.9630994 14.4129157,58.9630994 14.4521446,58.9609071 C15.105253,58.9641955 15.6385542,58.4161298 15.6417349,57.742009 C15.6417349,57.0645999 15.1137349,56.5143419 14.4595663,56.5121496 C13.7767711,56.465016 13.899759,56.3806139 13.8149398,56.3159421 C13.7831325,56.2556549 13.7566265,56.1920793 13.754506,56.0473899 C13.7173976,55.5793418 14.2369157,54.3516747 15.3840964,53.0681048 C16.5121928,51.7659007 18.1788916,50.3507951 20.1721446,49.106686 C22.0540723,47.9239602 23.9466024,47.0952849 25.5274217,46.6469672 C25.4765301,47.3758945 25.4457831,48.113591 25.4457831,48.8655371 C25.4457831,51.8612642 25.8698795,54.6903793 26.6088675,57.2334041 C26.1519036,57.5501861 25.691759,57.8647758 25.2008675,58.1563467 C18.0081928,62.4224901 10.1496867,62.2109367 7.6506988,57.6861063 C5.15171084,53.1601799 8.95691566,46.0331336 16.1485301,41.7680864 C19.9420723,39.5177287 23.9020723,38.544364 27.1792771,38.7635903 C26.5781205,40.3913454 26.1190361,42.1670782 25.8264096,44.0546165 C23.7483373,44.4963574 21.3659759,45.5135673 18.9496867,47.0119789 C16.777253,48.3667973 14.9483373,49.9068619 13.6209157,51.4293884 C12.3146988,52.969453 11.4230361,54.4371729 11.3859277,56.0473899 C11.3838072,56.5680523 11.5089157,57.1106374 11.7856386,57.5808777 Z M37.6385542,65.8555736 C32.3659759,65.8555736 28.0953253,58.2495179 28.0953253,48.8655371 C28.0953253,39.4815563 32.3670361,31.8755006 37.6385542,31.8755006 C42.9079518,31.8755006 47.1796627,39.4815563 47.1796627,48.8655371 C47.1796627,58.2495179 42.9079518,65.8555736 37.6385542,65.8555736 Z M38.398747,38.0796043 C38.7889157,37.6170368 39.0391325,37.5468844 39.155759,37.5501728 C39.278747,37.5940181 39.3391807,37.4416558 39.7961446,38.1629103 C40.1226988,38.7482444 40.8457831,38.9477403 41.413012,38.611228 C41.9791807,38.2736195 42.1763855,37.5249618 41.8466506,36.9385315 C41.1924819,35.6692114 40.0315181,35.0564739 39.155759,35.1014153 C36.9822651,35.2351433 35.877494,37.1807765 35.0271807,39.5001906 C34.1948916,41.9007183 33.7124819,45.0729225 33.7093012,48.5783507 C33.7124819,52.0804904 34.1948916,55.2515985 35.0271807,57.6532224 C35.877494,59.9715403 36.9780241,61.921558 39.155759,62.0530938 C39.1843855,62.0541899 39.2151325,62.055286 39.2448193,62.055286 C40.1078554,62.055286 41.2136867,61.4436447 41.8466506,60.2148815 C42.1721446,59.6284512 41.9791807,58.8776012 41.413012,58.542185 C40.8457831,58.2045765 40.1216386,58.4051685 39.7961446,58.9894066 C39.3391807,59.710661 39.2798072,59.5593949 39.155759,59.602144 C39.0391325,59.6054324 38.7889157,59.53528 38.398747,59.0727125 C37.2049157,57.7014522 36.045012,53.4561353 36.08,48.5794468 C36.0778795,45.3151675 36.5475663,42.3632857 37.2568675,40.329962 C37.6088675,39.311656 38.0255422,38.5301143 38.398747,38.0796043 Z" id="Shape"></path>
                    </g>
                </g>
            </g>
        </g>
    </g>
</svg>