<?xml version="1.0" encoding="UTF-8"?>
<svg width="66px" height="62px" viewBox="0 0 66 62" version="1.1" xmlns="http://www.w3.org/2000/svg" xmlns:xlink="http://www.w3.org/1999/xlink">
    <!-- Generator: Sketch 49 (51002) - http://www.bohemiancoding.com/sketch -->
    <title>Group</title>
    <desc>Created with Sketch.</desc>
    <defs></defs>
    <g id="Welcome" stroke="none" stroke-width="1" fill="none" fill-rule="evenodd">
        <g id="Modulos-Page-UserNoPay" transform="translate(-1047.000000, -676.000000)" fill="#FFFFFF" fill-rule="nonzero">
            <g id="Group-7" transform="translate(904.000000, 646.000000)">
                <g id="360" transform="translate(143.000000, 30.000000)">
                    <g id="Group">
                        <path d="M35.4569531,0.395766667 C21.21075,0.395766667 9.24773438,10.2418833 5.8925625,23.4892167 L12.3187969,23.4892167 C15.4878281,13.70665 24.6546094,6.60971667 35.4569531,6.60971667 C48.8776406,6.60971667 59.7985781,17.55065 59.7985781,31 C59.7985781,44.44935 48.8776406,55.3902833 35.4569531,55.3902833 C25.5827344,55.3902833 17.0800781,49.4537833 13.2727031,40.96495 L19.9485,40.96495 L9.97167187,30.9664167 L0.7033125,40.2576333 L0,40.96495 L6.61701563,40.96495 C10.7559375,52.9562667 22.1043281,61.6042333 35.4569531,61.6042333 C52.2998438,61.6042333 66,47.8753667 66,31 C66,14.1256667 52.2998438,0.395766667 35.4569531,0.395766667 Z" id="Shape"></path>
                        <path d="M46.9368281,30.9622833 C46.9368281,24.5587167 41.7517031,19.3682833 35.3631094,19.3682833 C28.9750312,19.3682833 23.7904219,24.5592333 23.7904219,30.9622833 C23.7904219,37.3674 28.9755469,42.55835 35.3631094,42.55835 C41.7522187,42.55835 46.9368281,37.3674 46.9368281,30.9622833 Z" id="Shape"></path>
                    </g>
                </g>
            </g>
        </g>
    </g>
</svg>