<?xml version="1.0" encoding="UTF-8"?>
<svg width="77px" height="73px" viewBox="0 0 77 73" version="1.1" xmlns="http://www.w3.org/2000/svg" xmlns:xlink="http://www.w3.org/1999/xlink">
    <!-- Generator: Sketch 49 (51002) - http://www.bohemiancoding.com/sketch -->
    <title>noun_676439_cc</title>
    <desc>Created with Sketch.</desc>
    <defs></defs>
    <g id="Welcome" stroke="none" stroke-width="1" fill="none" fill-rule="evenodd">
        <g id="Modulos-Page-UserNoPay" transform="translate(-653.000000, -296.000000)" fill="#FFFFFF" fill-rule="nonzero">
            <g id="Group-9" transform="translate(505.000000, 274.000000)">
                <g id="noun_676439_cc" transform="translate(148.000000, 22.000000)">
                    <path d="M50.5689949,44.8877176 C47.5851479,55.4172112 47.9115423,64.1993242 60.0946199,62.8656185 C58.7427451,62.9311735 75.094875,61.3171636 77,35.4997858 C75.1018196,9.68014747 58.7427451,8.06839803 60.0946199,8.13395305 C47.9045978,6.80250786 47.5851479,15.5846209 50.5689949,26.1118539 C52.203282,32.2649843 52.203282,38.7391083 50.5689949,44.8877176 Z" id="Shape"></path>
                    <path d="M26.4304902,44.8877176 C29.416594,55.4172112 29.0902059,64.1993242 16.9050508,62.8656185 C18.2568993,62.9311735 1.90277307,61.3171636 0,35.4997858 C1.90045827,9.68014747 18.2568993,8.06839803 16.9050508,8.13395305 C29.0925207,6.80250786 29.416594,15.5846209 26.4304902,26.1118539 C24.796235,32.2649843 24.796235,38.7391083 26.4304902,44.8877176 Z" id="Shape"></path>
                    <rect id="Rectangle-path" x="40" y="0" width="5" height="32"></rect>
                    <rect id="Rectangle-path" x="34" y="0" width="5" height="32"></rect>
                    <rect id="Rectangle-path" x="34" y="38" width="5" height="35"></rect>
                    <rect id="Rectangle-path" x="40" y="38" width="12" height="2"></rect>
                    <rect id="Rectangle-path" x="40" y="35" width="12" height="2"></rect>
                    <rect id="Rectangle-path" x="26" y="35" width="12" height="2"></rect>
                    <rect id="Rectangle-path" x="40" y="43" width="5" height="30"></rect>
                </g>
            </g>
        </g>
    </g>
</svg>