<?xml version="1.0" encoding="UTF-8"?>
<svg width="71px" height="74px" viewBox="0 0 71 74" version="1.1" xmlns="http://www.w3.org/2000/svg" xmlns:xlink="http://www.w3.org/1999/xlink">
    <!-- Generator: Sketch 49 (51002) - http://www.bohemiancoding.com/sketch -->
    <title>noun_782875_cc</title>
    <desc>Created with Sketch.</desc>
    <defs></defs>
    <g id="Welcome" stroke="none" stroke-width="1" fill="none" fill-rule="evenodd">
        <g id="Modulos-Page-UserNoPay" transform="translate(-258.000000, -661.000000)" fill="#FFFFFF" fill-rule="nonzero">
            <g id="Group-5" transform="translate(107.000000, 646.000000)">
                <g id="noun_782875_cc" transform="translate(151.000000, 15.000000)">
                    <path d="M28.9373579,40.6277176 C28.9373579,40.6260746 28.9373579,40.6252532 28.9373579,40.6236102 C28.9373579,40.5841796 28.9210562,40.5463919 28.9169807,40.5077827 C28.6488175,40.7090433 28.3855448,40.8823738 28.1287928,41.0507754 C27.6161038,41.3366475 27.1319428,41.6488067 26.6771249,41.9782168 C26.2769178,42.2681963 21.3432034,52.6285957 20.8940911,57.5952128 C21.5054055,58.240068 22.9432168,59.5092416 23.8724147,60.1171305 C24.8529629,60.7586998 24.1960037,62.5642943 22.7557471,61.6376744 C22.4737274,61.4561292 21.6415248,60.752128 20.8109524,60.0399122 C20.7628623,60.7422704 20.7473757,61.3690532 20.7172175,61.8783656 C20.6381542,63.2050421 18.7879094,63.2280433 18.8082865,61.8208625 C18.8172525,61.2137951 18.9321796,58.8274202 19.2378367,55.900517 C17.6810228,57.2961972 15.6848777,59.1157567 15.6563497,59.1445082 C15.4745856,59.307981 15.2455464,59.3851993 15.0165073,59.3851993 C14.7589402,59.3851993 14.500558,59.2792295 14.3098279,59.0771475 C13.9560807,58.6828412 13.9854238,58.0757737 14.376665,57.7102188 C14.5486481,57.5557822 18.4170453,54.0135968 19.591584,53.0508321 C20.1947475,50.8443595 21.2600646,48.5918844 21.83307,46.7148219 C20.0374359,47.7835564 16.6214113,48.747964 14.500558,49.3344947 C14.490777,49.3344947 14.490777,49.3443524 14.490777,49.3443524 C13.8411536,50.0089229 13.1532212,51.8662701 12.847564,53.0697259 C12.7424179,53.5026415 12.3511767,53.7917994 11.9208114,53.7917994 C11.8441933,53.7917994 11.7683904,53.7819418 11.6819913,53.7630479 C11.175823,53.6283266 10.8701658,53.1083351 10.9940588,52.5883436 C11.0796429,52.2416826 11.3853,51.1253027 11.8922834,49.9990652 C10.9467839,50.2110049 10.3159075,50.3260109 10.2205424,50.3457262 C10.1634864,50.3555839 10.1056153,50.3646201 10.0485593,50.3646201 C9.59944703,50.3646201 9.19842481,50.0376744 9.1128408,49.5751859 C9.01747576,49.0453367 9.36144197,48.5450605 9.87739129,48.4489484 C9.92548135,48.4489484 16.5399027,47.275887 20.8329597,44.5691382 C21.6904299,44.0286099 25.2645812,40.2662701 25.5229634,39.7561363 C24.6883156,39.4447985 21.330162,40.3820976 21.0619988,40.4207067 L17.0501464,42.9910913 C16.7779078,43.1751009 16.1209486,43.3106437 15.7321527,42.6928971 C15.4509481,42.246838 15.5789165,41.6529141 16.0280288,41.3645776 L18.5401233,39.7569577 L14.700254,38.3998867 C14.2038668,38.2265562 13.9454846,37.6778132 14.1174677,37.1676793 C14.2894508,36.6674032 14.8339281,36.4069967 15.3303154,36.5803272 L20.7750886,38.5058565 C23.4640567,38.0318674 26.307076,37.0452801 28.2469802,35.7950004 C28.24535,35.7843212 28.2437199,35.7728206 28.2420897,35.7621415 C27.8215054,32.2561008 28.2779535,30.2172084 28.4882456,28.1282062 C28.7026132,25.9529495 28.7058735,25.9250195 28.4882456,28.1282062 C28.8550342,24.4167977 29.2536112,20.9345797 28.7050584,18.70182 C28.3977711,17.3201048 27.2843639,16 25.917465,16 C20.9764148,16 7.30172012,24.6739183 1.71023146,45.2542455 C0.828308612,48.4916649 0.32866101,52.1184619 0.1224443,55.7805821 C-0.238638714,61.9021882 0.230850713,68.1289427 1.11114339,72.8359748 C1.14945242,73.0093053 1.23911186,73.205637 1.67844311,73.4463282 C2.36148502,73.827491 3.44147372,73.9778203 4.78310497,74 C3.44310389,73.9778203 2.36393028,73.7864174 1.68170346,73.4060761 C1.2423722,73.1653849 1.15597311,72.9016925 1.11847916,72.728362 C0.419950621,68.9914879 -0.0193806312,64.3230649 0.0115926296,59.510063 C-0.0120448589,64.3386729 0.425656222,69.0194179 1.11847916,72.728362 C1.15678819,72.9016925 1.2423722,73.1522413 1.68170346,73.3929325 C2.36393028,73.7740953 3.44310389,73.9515332 4.78310497,73.9737129 C10.5897763,74.0706466 21.3008189,71.256285 25.8954576,69.4654769 C27.3756535,68.6826145 28.378209,66.9912046 29.0213117,64.6902627 C30.6270308,58.9588556 30.0083807,49.4306069 28.938173,40.6252532 C28.9365428,40.6252532 28.9373579,40.6268961 28.9373579,40.6277176 Z" id="Shape"></path>
                    <path d="M69.3098278,44.7611352 C63.3880944,23.3512512 48.461903,15.0693381 44.3456258,16.0821642 C41.3272943,16.8300725 41.9174299,22.2156582 42.4904483,27.9226991 C42.6909639,29.97662 43.1180786,32.177538 42.6673259,35.6739688 C44.5868967,36.8006773 46.8985328,37.4815484 48.3983248,37.8417721 C49.3438459,38.0784212 49.9747367,38.1729194 49.9934841,38.1729194 C50.3178956,38.2141109 50.9308541,38.5266816 50.7865807,39.2519749 C50.6031822,40.1743413 49.6519554,40.0321903 49.5068668,40.0184598 C49.2395125,39.9708069 46.2431888,39.2172449 45.0368343,39.3561652 C45.4191183,40.0943814 46.8039806,41.7032726 49.7367262,44.0883408 C51.2650469,45.3281239 54.2067587,46.3126814 56.6618531,46.9846681 C56.7189104,46.9943602 56.7767828,47.0032446 56.8338401,47.0226289 C58.9449604,47.5807332 60.6452682,47.9029961 60.6835781,47.9029961 C61.1995392,47.9974942 61.5435132,48.4901767 61.448146,49.0103203 C61.3715262,49.4642344 60.9704948,49.7864972 60.5124062,49.7864972 C60.4553489,49.7864972 60.3974764,49.7768051 60.3404191,49.7679207 C60.2540181,49.7493441 59.6141611,49.6354618 58.6784213,49.4270813 C59.1748199,50.5344055 59.480484,51.6320376 59.5668851,51.9728771 C59.7005622,52.4841362 59.3908225,53.0188179 58.878937,53.1278542 C58.363791,53.2376982 57.8282674,52.8726285 57.7133377,52.4461754 C57.4076736,51.2629296 56.7107593,49.4173892 56.0611211,48.7736711 C53.9312534,48.1864904 51.4378491,47.3634683 49.6421741,46.3029893 C50.2249737,48.1485297 50.6545338,50.3163329 50.9601979,52.417099 C52.1062347,53.335427 56.01303,56.8560881 56.1947982,57.0079313 C57.309861,57.8899138 56.1752357,59.4931513 54.9053031,58.4181341 C54.8767745,58.3898655 52.88955,56.6008624 51.3237344,55.2189282 C51.6293986,58.0958713 51.7157997,60.4534785 51.7532945,61.0398515 C51.8372502,62.3272875 50.00082,62.5041686 49.8426898,61.115773 C49.7848174,60.6077446 49.7945986,59.9987567 49.7473226,59.2985013 C48.9256974,59.9987567 48.0665773,60.6707434 47.8081892,60.8694318 C47.6362022,61.0018907 47.4259053,61.0681201 47.2156084,61.0681201 C46.9384729,61.0681201 46.6523712,60.9356612 46.4608217,60.6990121 C46.1364102,60.2822511 46.2122149,59.6958781 46.6328087,59.3736152 C47.5114913,58.6919364 48.9444448,57.5280748 49.555773,56.8940489 C49.1164318,52.1045283 48.142382,45.7448849 46.3173633,43.6433111 C46.3075821,43.6433111 46.2986159,43.633619 46.2888347,43.6247346 C45.2194177,42.6401771 44.4833785,41.8357315 43.9771986,41.1734369 C43.9103601,41.1548604 42.7545421,40.6621778 42.0478466,40.3786834 C40.5578358,52.4655596 39.9652549,65.8956015 45.104488,68.5649718 C50.7686484,70.732775 65.688319,74.4238558 69.3179788,72.4264723 C69.7573201,72.1898231 69.8526873,71.9434818 69.8812159,71.7730621 C71.2742293,64.4377458 71.6597737,53.2409289 69.3098278,44.7611352 Z" id="Shape"></path>
                    <path d="M37.933818,26.9190343 C37.7844358,19.9540154 37.4864835,7.3501396 37.4929783,0.488585975 C37.4929783,0.214320907 37.2737763,0 37.0034271,0 L32.5909716,0 C32.3165631,0 32.0965492,0.220068977 32.1014204,0.497618657 C32.2061502,6.40663492 31.9195639,16.0338315 31.7604395,22.4831664 C31.7222821,24.1000164 31.6841247,25.6708819 31.6557096,26.9789785 C31.5509797,31.5593694 30.7610406,33.3117096 30.0003284,34.2067663 C29.9905861,34.2453605 30.2000458,35.8170471 30.3047756,36.557727 C30.3047756,36.557727 30.6416973,39.1024799 30.7155765,39.7273772 C30.7155765,39.7273772 30.7155765,39.7273772 30.7163883,39.7273772 C32.2126451,39.2059451 33.7559897,38.9702743 35.1475167,38.9702743 C36.1274309,38.9702743 37.7349124,39.441616 39.2766333,40 C39.3618786,39.355395 39.6858104,36.8820824 39.6858104,36.8820824 C39.7905403,36.1414025 39.8855278,35.3908688 40,34.6493677 C39.151607,33.8717359 38.0580324,32.3172935 37.933818,26.9190343 Z" id="Shape"></path>
                </g>
            </g>
        </g>
    </g>
</svg>