<?xml version="1.0" encoding="UTF-8"?>
<svg width="166px" height="145px" viewBox="0 0 166 145" version="1.1" xmlns="http://www.w3.org/2000/svg" xmlns:xlink="http://www.w3.org/1999/xlink">
    <!-- Generator: Sketch 49 (51002) - http://www.bohemiancoding.com/sketch -->
    <title>noun_521590_cc</title>
    <desc>Created with Sketch.</desc>
    <defs></defs>
    <g id="Welcome" stroke="none" stroke-width="1" fill="none" fill-rule="evenodd">
        <g id="FAQ" transform="translate(-340.000000, -1826.000000)" fill="#0271BE" fill-rule="nonzero">
            <g id="Group-2" transform="translate(340.000000, 1826.000000)">
                <g id="noun_521590_cc">
                    <path d="M163.963288,68.9455531 L143.365892,56.9961813 C136.169905,23.8570666 106.667352,0 72.5017997,0 C32.523875,0 0,32.5159454 0,72.4880923 C0,112.470162 32.5258601,145 72.5017997,145 C106.667352,145 136.171891,121.142933 143.363907,88.0018341 L163.963288,76.0306315 C165.225811,75.2963237 166,73.9467849 166,72.4861077 C166,71.0254305 165.223826,69.6778763 163.963288,68.9455531 Z M75.3246116,107.560223 C74.4630783,108.419561 73.2680483,108.911746 72.0372864,108.911746 C70.8204202,108.911746 69.6134795,108.417577 68.7340803,107.562207 C67.8626215,106.663176 67.3802423,105.492253 67.3802423,104.253853 C67.3802423,103.025376 67.872547,101.830637 68.7301101,100.971298 C69.5757626,100.143714 70.7807182,99.6674058 72.049197,99.6674058 C73.3137056,99.6674058 74.5067505,100.143714 75.3246116,100.973283 C76.1940854,101.820714 76.6963156,103.019422 76.6963156,104.253853 C76.6983007,105.500192 76.2099662,106.6731 75.3246116,107.560223 Z M76.3906102,86.0747721 L76.3906102,90.55405 C76.3906102,92.9534505 74.437272,94.9043278 72.0372864,94.9043278 C69.6373007,94.9043278 67.6859476,92.9534505 67.6859476,90.55405 L67.6859476,82.0995867 C67.6859476,79.7001861 69.6373007,77.7473242 72.0372864,77.7473242 C81.1191179,77.7473242 88.5076594,70.3625688 88.5076594,61.2849361 C88.5076594,52.2073034 81.1191179,44.822548 72.0372864,44.822548 C62.9574399,44.822548 55.5708836,52.2073034 55.5708836,61.2849361 C55.5708836,63.6843366 53.6195305,65.6371985 51.2195449,65.6371985 C48.8175741,65.6371985 46.8682061,63.6863212 46.8682061,61.2849361 C46.8682061,47.4085024 58.1594537,36.1200077 72.0392715,36.1200077 C85.9210743,36.1200077 97.2143071,47.4085024 97.2143071,61.2849361 C97.212322,73.5736772 88.4679574,83.9651255 76.3906102,86.0747721 Z" id="Shape"></path>
                </g>
            </g>
        </g>
    </g>
</svg>